<?xml version="1.0" encoding="UTF-8" standalone="no"?>
<!-- Created with Inkscape (http://www.inkscape.org/) -->

<svg
   width="210mm"
   height="297mm"
   viewBox="0 0 210 297"
   version="1.1"
   id="svg5"
   inkscape:version="1.1.2 (0a00cf5339, 2022-02-04)"
   sodipodi:docname="fw.svg"
   xmlns:inkscape="http://www.inkscape.org/namespaces/inkscape"
   xmlns:sodipodi="http://sodipodi.sourceforge.net/DTD/sodipodi-0.dtd"
   xmlns="http://www.w3.org/2000/svg"
   xmlns:svg="http://www.w3.org/2000/svg">
  <sodipodi:namedview
     id="namedview7"
     pagecolor="#ffffff"
     bordercolor="#666666"
     borderopacity="1.0"
     inkscape:pageshadow="2"
     inkscape:pageopacity="0.0"
     inkscape:pagecheckerboard="0"
     inkscape:document-units="mm"
     showgrid="false"
     inkscape:zoom="0.60756173"
     inkscape:cx="60.0762"
     inkscape:cy="562.0828"
     inkscape:window-width="1920"
     inkscape:window-height="1025"
     inkscape:window-x="0"
     inkscape:window-y="0"
     inkscape:window-maximized="1"
     inkscape:current-layer="layer1" />
  <defs
     id="defs2">
    <inkscape:perspective
       sodipodi:type="inkscape:persp3d"
       inkscape:vp_x="0 : 148.5 : 1"
       inkscape:vp_y="0 : 1000 : 0"
       inkscape:vp_z="210 : 148.5 : 1"
       inkscape:persp3d-origin="105 : 99 : 1"
       id="perspective141" />
    <filter
       inkscape:collect="always"
       style="color-interpolation-filters:sRGB"
       id="filter43032"
       x="-0.14517979"
       y="-0.10646987"
       width="1.2903736"
       height="1.1785081">
      <feGaussianBlur
         inkscape:collect="always"
         stdDeviation="0.9434366"
         id="feGaussianBlur43034" />
    </filter>
    <filter
       inkscape:collect="always"
       style="color-interpolation-filters:sRGB"
       id="filter43036"
       x="-0.12586996"
       y="-0.083901147"
       width="1.2517402"
       height="1.167789">
      <feGaussianBlur
         inkscape:collect="always"
         stdDeviation="0.92764605"
         id="feGaussianBlur43038" />
    </filter>
    <filter
       inkscape:collect="always"
       style="color-interpolation-filters:sRGB"
       id="filter43040"
       x="-0.19011779"
       y="-1.2501033"
       width="1.3802356"
       height="3.5002067">
      <feGaussianBlur
         inkscape:collect="always"
         stdDeviation="0.84620334"
         id="feGaussianBlur43042" />
    </filter>
  </defs>
  <g
     inkscape:label="Layer 1"
     inkscape:groupmode="layer"
     id="layer1">
    <g
       sodipodi:type="inkscape:box3d"
       id="g143"
       style="fill:#d2d2fb"
       inkscape:perspectiveID="#perspective141"
       inkscape:corner0="9.0430273 : 0.10848552 : 0 : 1"
       inkscape:corner7="-0.086929986 : 0.0057813611 : 0.25 : 1">
      <path
         sodipodi:type="inkscape:box3dside"
         id="path155"
         style="fill:#e9e9ff;fill-rule:evenodd;stroke:none;stroke-linejoin:round"
         inkscape:box3dsidetype="11"
         d="M 15.301621,142.76938 135.41747,97.784641 V 186.089 L 15.301621,152.74741 Z"
         points="135.41747,97.784641 135.41747,186.089 15.301621,152.74741 15.301621,142.76938 " />
      <path
         sodipodi:type="inkscape:box3dside"
         id="path145"
         style="fill:#353564;fill-rule:evenodd;stroke:none;stroke-linejoin:round"
         inkscape:box3dsidetype="6"
         d="m 10.455015,142.62672 v 10.22642 l 4.846606,-0.10573 v -9.97803 z"
         points="10.455015,152.85314 15.301621,152.74741 15.301621,142.76938 10.455015,142.62672 " />
      <path
         sodipodi:type="inkscape:box3dside"
         id="path153"
         style="fill:#afafde;fill-rule:evenodd;stroke:none;stroke-linejoin:round"
         inkscape:box3dsidetype="13"
         d="M 10.455015,152.85314 114.99666,196.38093 135.41747,186.089 15.301621,152.74741 Z"
         points="114.99666,196.38093 135.41747,186.089 15.301621,152.74741 10.455015,152.85314 " />
      <path
         sodipodi:type="inkscape:box3dside"
         id="path147"
         style="fill:#4d4d9f;fill-rule:evenodd;stroke:none;stroke-linejoin:round"
         inkscape:box3dsidetype="5"
         d="M 10.455015,142.62672 114.99666,83.898695 135.41747,97.784641 15.301621,142.76938 Z"
         points="114.99666,83.898695 135.41747,97.784641 15.301621,142.76938 10.455015,142.62672 " />
      <path
         sodipodi:type="inkscape:box3dside"
         id="path151"
         style="fill:#d7d7ff;fill-rule:evenodd;stroke:none;stroke-linejoin:round"
         inkscape:box3dsidetype="14"
         d="M 114.99666,83.898695 V 196.38093 L 135.41747,186.089 V 97.784641 Z"
         points="114.99666,196.38093 135.41747,186.089 135.41747,97.784641 114.99666,83.898695 " />
      <path
         sodipodi:type="inkscape:box3dside"
         id="path149"
         style="fill:#8686bf;fill-rule:evenodd;stroke:none;stroke-linejoin:round"
         inkscape:box3dsidetype="3"
         d="M 10.455015,142.62672 114.99666,83.898695 V 196.38093 L 10.455015,152.85314 Z"
         points="114.99666,83.898695 114.99666,196.38093 10.455015,152.85314 10.455015,142.62672 " />
    </g>
    <g
       sodipodi:type="inkscape:box3d"
       id="g20175"
       style="fill:#ade5f3;fill-opacity:1"
       inkscape:perspectiveID="#perspective141"
       inkscape:corner0="5.8620183 : 0.08882368 : 0 : 1"
       inkscape:corner7="1.8319162 : 0.029970281 : 0.25 : 1">
      <path
         sodipodi:type="inkscape:box3dside"
         id="path20187"
         style="fill:#e9e9ff;fill-rule:evenodd;stroke:none;stroke-linejoin:round"
         inkscape:box3dsidetype="11"
         d="m 22.145613,142.97082 28.958957,-7.23031 v 19.09637 l -28.958957,-3.59086 z"
         points="51.10457,135.74051 51.10457,154.83688 22.145613,151.24602 22.145613,142.97082 " />
      <path
         sodipodi:type="inkscape:box3dside"
         id="path20177"
         style="fill:#353564;fill-rule:evenodd;stroke:none;stroke-linejoin:round"
         inkscape:box3dsidetype="6"
         d="m 15.301621,142.76938 v 8.57668 l 6.843992,-0.10004 v -8.2752 z"
         points="15.301621,151.34606 22.145613,151.24602 22.145613,142.97082 15.301621,142.76938 " />
      <path
         sodipodi:type="inkscape:box3dside"
         id="path20185"
         style="fill:#afafde;fill-rule:evenodd;stroke:none;stroke-linejoin:round"
         inkscape:box3dsidetype="13"
         d="m 15.301621,151.34606 21.775748,4.05024 14.027201,-0.55942 -28.958957,-3.59086 z"
         points="37.077369,155.3963 51.10457,154.83688 22.145613,151.24602 15.301621,151.34606 " />
      <path
         sodipodi:type="inkscape:box3dside"
         id="path20179"
         style="fill:#4d4d9f;fill-rule:evenodd;stroke:none;stroke-linejoin:round"
         inkscape:box3dsidetype="5"
         d="m 15.301621,142.76938 21.775748,-8.15527 14.027201,1.1264 -28.958957,7.23031 z"
         points="37.077369,134.61411 51.10457,135.74051 22.145613,142.97082 15.301621,142.76938 " />
      <path
         sodipodi:type="inkscape:box3dside"
         id="path20183"
         style="fill:#d7e7ff;fill-rule:evenodd;stroke:none;stroke-linejoin:round;fill-opacity:1"
         inkscape:box3dsidetype="14"
         d="M 37.077369,134.61411 V 155.3963 L 51.10457,154.83688 V 135.74051 Z"
         points="37.077369,155.3963 51.10457,154.83688 51.10457,135.74051 37.077369,134.61411 " />
      <path
         sodipodi:type="inkscape:box3dside"
         id="path20181"
         style="fill:#8686bf;fill-rule:evenodd;stroke:none;stroke-linejoin:round"
         inkscape:box3dsidetype="3"
         d="m 15.301621,142.76938 21.775748,-8.15527 v 20.78219 l -21.775748,-4.05024 z"
         points="37.077369,134.61411 37.077369,155.3963 15.301621,151.34606 15.301621,142.76938 " />
    </g>
    <g
       sodipodi:type="inkscape:box3d"
       id="g20189"
       style="fill:#ade5f3;fill-opacity:1"
       inkscape:perspectiveID="#perspective141"
       inkscape:corner0="-0.13750512 : 0.091990045 : 0 : 1"
       inkscape:corner7="-0.22461999 : 0.020354241 : 0.25 : 1">
      <path
         sodipodi:type="inkscape:box3dside"
         id="path20201"
         style="fill:#e9e9ff;fill-rule:evenodd;stroke:none;stroke-linejoin:round"
         inkscape:box3dsidetype="11"
         d="m 141.57369,110.30653 12.0279,-3.24486 v 69.86268 l -12.0279,-2.22579 z"
         points="153.60159,107.06167 153.60159,176.92435 141.57369,174.69856 141.57369,110.30653 " />
      <path
         sodipodi:type="inkscape:box3dside"
         id="path20191"
         style="fill:#353564;fill-rule:evenodd;stroke:none;stroke-linejoin:round"
         inkscape:box3dsidetype="6"
         d="m 121.73986,99.235893 v 83.056497 l 19.83383,-7.59383 v -64.39203 z"
         points="121.73986,182.29239 141.57369,174.69856 141.57369,110.30653 121.73986,99.235893 " />
      <path
         sodipodi:type="inkscape:box3dside"
         id="path20199"
         style="fill:#afafde;fill-rule:evenodd;stroke:none;stroke-linejoin:round"
         inkscape:box3dsidetype="13"
         d="m 121.73986,182.29239 13.67761,3.79661 18.18412,-9.16465 -12.0279,-2.22579 z"
         points="135.41747,186.089 153.60159,176.92435 141.57369,174.69856 121.73986,182.29239 " />
      <path
         sodipodi:type="inkscape:box3dside"
         id="path20193"
         style="fill:#4d4d9f;fill-rule:evenodd;stroke:none;stroke-linejoin:round"
         inkscape:box3dsidetype="5"
         d="m 121.73986,99.235893 13.67761,-5.534882 18.18412,13.360659 -12.0279,3.24486 z"
         points="135.41747,93.701011 153.60159,107.06167 141.57369,110.30653 121.73986,99.235893 " />
      <path
         sodipodi:type="inkscape:box3dside"
         id="path20197"
         style="fill:#d7e7ff;fill-rule:evenodd;stroke:none;stroke-linejoin:round;fill-opacity:1;opacity:1;stroke-width:1;stroke-miterlimit:4;stroke-dasharray:none"
         inkscape:box3dsidetype="14"
         d="M 135.41747,93.701011 V 186.089 l 18.18412,-9.16465 v -69.86268 z"
         points="135.41747,186.089 153.60159,176.92435 153.60159,107.06167 135.41747,93.701011 " />
      <path
         sodipodi:type="inkscape:box3dside"
         id="path20195"
         style="fill:#8686c4;fill-rule:evenodd;stroke:none;stroke-linejoin:round;fill-opacity:1"
         inkscape:box3dsidetype="3"
         d="m 121.73986,99.235893 13.67761,-5.534882 V 186.089 l -13.67761,-3.79661 z"
         points="135.41747,93.701011 135.41747,186.089 121.73986,182.29239 121.73986,99.235893 " />
    </g>
    <path
       style="mix-blend-mode:normal;fill:none;stroke:#bfe7ff;stroke-width:1.26499995;stroke-linecap:butt;stroke-linejoin:miter;stroke-miterlimit:4;stroke-dasharray:none;stroke-opacity:1;filter:url(#filter43032);stroke-dashoffset:0"
       d="m 58.312316,158.67263 c 2.245463,-18.67647 19.855341,-32.47927 19.855341,-32.47927 l 0.06634,0.56987"
       id="path42930" />
    <path
       style="mix-blend-mode:normal;fill:none;stroke:#bde7ff;stroke-width:1.15045699;stroke-linecap:butt;stroke-linejoin:miter;stroke-miterlimit:4;stroke-dasharray:none;stroke-opacity:1;filter:url(#filter43040)"
       d="m 65.650894,140.64598 11.232423,-2.07705"
       id="path42932"
       transform="matrix(1.1900189,0,0,0.93109427,-12.421919,9.6197538)" />
    <path
       style="mix-blend-mode:normal;fill:none;stroke:#cbe7ff;stroke-width:1.36534015;stroke-linecap:round;stroke-linejoin:round;stroke-miterlimit:4;stroke-dasharray:none;stroke-opacity:1;filter:url(#filter43036);paint-order:normal"
       d="m 88.797883,112.9111 -0.598792,33.37065 13.840219,-32.41463 -4.242562,33.71598 13.513612,-34.30116"
       id="path42936"
       transform="matrix(0.99827918,0,0,1.0174267,-1.1128197,10.816166)" />
    <path
       style="fill:none;stroke:#000000;stroke-width:0.264583px;stroke-linecap:butt;stroke-linejoin:miter;stroke-opacity:1"
       d="M 67.001574,128.84028 Z"
       id="path42940" />
    <path
       style="fill:none;stroke:#000000;stroke-width:0.264583px;stroke-linecap:butt;stroke-linejoin:miter;stroke-opacity:1"
       d="m 67.001574,128.84028 v 0"
       id="path42942" />
  </g>
</svg>
